M48
;GenerationSoftware,Autodesk,EAGLE,9.6.2*%
;CreationDate,2020-10-06T21:34:36Z*%
FMAT,2
ICI,OFF
METRIC,TZ,000.000
T5C0.813
T4C0.914
T3C1.118
T2C3.302
%
G90
M71
T2
X53086Y45720
T3
X38100Y43180
X38100Y45720
X9108Y47208
X16292Y54392
X19268Y54392
X26452Y47208
X16603Y37388
X8797Y43892
X26452Y44232
X19268Y37048
X38100Y48260
T4
X41910Y54610
X44450Y54610
X3810Y41910
X3810Y44450
T5
X33020Y43180
X33020Y45720
X31750Y53340
X29210Y53340
X31750Y38100
X29210Y38100
M30